<?xml version="1.0" encoding="UTF-8" standalone="no"?>
<svg
   width="16"
   height="16"
   viewBox="0 0 16 16"
   fill="none"
   version="1.1"
   id="svg127"
   sodipodi:docname="folder-qbs.svg"
   inkscape:version="1.2.2 (732a01da63, 2022-12-09)"
   xmlns:inkscape="http://www.inkscape.org/namespaces/inkscape"
   xmlns:sodipodi="http://sodipodi.sourceforge.net/DTD/sodipodi-0.dtd"
   xmlns="http://www.w3.org/2000/svg"
   xmlns:svg="http://www.w3.org/2000/svg">
  <sodipodi:namedview
     id="namedview129"
     pagecolor="#ffffff"
     bordercolor="#000000"
     borderopacity="0.25"
     inkscape:showpageshadow="2"
     inkscape:pageopacity="0.0"
     inkscape:pagecheckerboard="0"
     inkscape:deskcolor="#d1d1d1"
     showgrid="false"
     inkscape:zoom="64.1875"
     inkscape:cx="7.3924051"
     inkscape:cy="8.1557936"
     inkscape:window-width="1770"
     inkscape:window-height="1360"
     inkscape:window-x="774"
     inkscape:window-y="0"
     inkscape:window-maximized="0"
     inkscape:current-layer="g120" />
  <g
     clip-path="url(#clip0)"
     id="g120">
    <path
       fill-rule="evenodd"
       clip-rule="evenodd"
       d="M7.71045 3H14.5005L15.0105 3.5V8.00717C14.7 7.77276 14.3614 7.57372 14.0005 7.41604V5.98999H7.69043L6.83044 6.84998L6.48047 7H1.99048V7.48999V11.49V13H7.10051C7.17111 13.3478 7.27781 13.6825 7.41653 14H1.5105L1.0105 13.5V6.5V2.5L1.5105 2H6.5105L6.86047 2.15002L7.71045 3ZM7.49048 5H13.9905L14.0005 4.01001H7.50049L7.1405 3.85999L6.29053 3.01001H2.00049V6.01001H6.28052L7.1405 5.15002L7.49048 5Z"
       fill="#424242"
       id="path116" />
    <path
       d="m 15.356208,9.8353547 -3.297747,1.8492013 v 3.698328 l 3.297747,-1.849202 z"
       style="fill:none;stroke:#424242;stroke-width:0.93891;stroke-linecap:butt;stroke-linejoin:bevel;stroke-miterlimit:4;stroke-dasharray:none;stroke-opacity:1"
       id="path138"
       inkscape:connector-curvature="0" />
    <path
       d="M 12.058461,7.9861525 8.7606363,9.8353547 12.058461,11.684556 15.356208,9.8353547 Z"
       style="fill:none;fill-opacity:1;fill-rule:nonzero;stroke:#424242;stroke-width:0.93891;stroke-linejoin:bevel;stroke-miterlimit:4;stroke-dasharray:none;stroke-opacity:1"
       id="path148"
       inkscape:connector-curvature="0" />
    <path
       d="M 12.058461,11.684556 8.7606363,9.8353547 v 3.6983273 l 3.2978247,1.849202 z"
       style="fill:none;fill-opacity:1;fill-rule:nonzero;stroke:#424242;stroke-width:0.93891;stroke-linejoin:bevel;stroke-miterlimit:4;stroke-dasharray:none;stroke-opacity:1"
       id="path172"
       inkscape:connector-curvature="0" />
  </g>
  <defs
     id="defs125">
    <clipPath
       id="clip0">
      <rect
         width="16"
         height="16"
         fill="white"
         transform="translate(0.000488281)"
         id="rect122" />
    </clipPath>
  </defs>
</svg>
