<?xml version="1.0" encoding="UTF-8" standalone="no"?>
<svg
   width="16"
   height="16"
   version="1.1"
   fill="none"
   id="svg701"
   sodipodi:docname="index.svg"
   inkscape:version="1.2.2 (732a01da63, 2022-12-09)"
   xmlns:inkscape="http://www.inkscape.org/namespaces/inkscape"
   xmlns:sodipodi="http://sodipodi.sourceforge.net/DTD/sodipodi-0.dtd"
   xmlns="http://www.w3.org/2000/svg"
   xmlns:svg="http://www.w3.org/2000/svg">
  <sodipodi:namedview
     id="namedview703"
     pagecolor="#ffffff"
     bordercolor="#000000"
     borderopacity="0.25"
     inkscape:showpageshadow="2"
     inkscape:pageopacity="0.0"
     inkscape:pagecheckerboard="0"
     inkscape:deskcolor="#d1d1d1"
     showgrid="false"
     inkscape:zoom="65.8125"
     inkscape:cx="7.665717"
     inkscape:cy="7.9924027"
     inkscape:window-width="2560"
     inkscape:window-height="1369"
     inkscape:window-x="-8"
     inkscape:window-y="-8"
     inkscape:window-maximized="1"
     inkscape:current-layer="g699" />
  <defs
     id="defs125">
    <clipPath
       id="clip0">
      <rect
         x="0.00049"
         y="0"
         id="rect122"
         fill="white"
         height="16"
         width="16" />
    </clipPath>
  </defs>
  <g
     id="g699">
    <title
       id="title692">Layer 1</title>
    <g
       id="g120"
       clip-path="url(#clip0)">
      <path
         id="path116"
         fill="#424242"
         d="m7.71045,3l6.79005,0l0.51,0.5l0,4.50717c-0.3105,-0.23441 -0.6491,-0.43345 -1.01,-0.59113l0,-1.42605l-6.31007,0l-0.85999,0.85999l-0.34997,0.15002l-4.48999,0l0,0.48999l0,4.00001l0,1.51l5.11003,0c0.0706,0.3478 0.1773,0.6825 0.31602,1l-5.90603,0l-0.5,-0.5l0,-7l0,-4l0.5,-0.5l5,0l0.34997,0.15002l0.84998,0.84998zm-0.21997,2l6.50002,0l0.01,-0.98999l-6.50001,0l-0.35999,-0.15002l-0.84997,-0.84998l-4.29004,0l0,3l4.28003,0l0.85998,-0.85999l0.34998,-0.15002z"
         clip-rule="evenodd"
         fill-rule="evenodd" />
    </g>
    <rect
       id="svg_1"
       height="6.3223224"
       width="7.0855317"
       y="9.15485"
       x="8.3931732"
       stroke="#424242"
       style="stroke-width:1.03833" />
    <rect
       style="fill:#424242;fill-rule:evenodd;stroke:#424242;stroke-width:1.05827"
       id="rect978"
       width="2.3095915"
       height="2.0968661"
       x="12.414055"
       y="12.702754"
       ry="0.14434947" />
  </g>
</svg>
