<?xml version="1.0" encoding="UTF-8" standalone="no"?>
<svg
   width="16"
   height="16"
   viewBox="0 0 16 16"
   fill="none"
   version="1.1"
   id="svg127"
   sodipodi:docname="folder-application.svg"
   inkscape:version="1.2.2 (732a01da63, 2022-12-09)"
   xmlns:inkscape="http://www.inkscape.org/namespaces/inkscape"
   xmlns:sodipodi="http://sodipodi.sourceforge.net/DTD/sodipodi-0.dtd"
   xmlns="http://www.w3.org/2000/svg"
   xmlns:svg="http://www.w3.org/2000/svg">
  <sodipodi:namedview
     id="namedview129"
     pagecolor="#ffffff"
     bordercolor="#000000"
     borderopacity="0.25"
     inkscape:showpageshadow="2"
     inkscape:pageopacity="0.0"
     inkscape:pagecheckerboard="0"
     inkscape:deskcolor="#d1d1d1"
     showgrid="false"
     inkscape:zoom="64.1875"
     inkscape:cx="7.6183057"
     inkscape:cy="8"
     inkscape:window-width="1488"
     inkscape:window-height="1230"
     inkscape:window-x="1286"
     inkscape:window-y="26"
     inkscape:window-maximized="0"
     inkscape:current-layer="g120" />
  <g
     clip-path="url(#clip0)"
     id="g120">
    <path
       fill-rule="evenodd"
       clip-rule="evenodd"
       d="M7.71045 3H14.5005L15.0105 3.5V8.00717C14.7 7.77276 14.3614 7.57372 14.0005 7.41604V5.98999H7.69043L6.83044 6.84998L6.48047 7H1.99048V7.48999V11.49V13H7.10051C7.17111 13.3478 7.27781 13.6825 7.41653 14H1.5105L1.0105 13.5V6.5V2.5L1.5105 2H6.5105L6.86047 2.15002L7.71045 3ZM7.49048 5H13.9905L14.0005 4.01001H7.50049L7.1405 3.85999L6.29053 3.01001H2.00049V6.01001H6.28052L7.1405 5.15002L7.49048 5Z"
       fill="#C5C5C5"
       id="path116" />
    <path
       d="m 11.996085,7.9961051 c 0.3672,0 0.7214,0.04688 1.0625,0.14062 0.3412,0.09376 0.6589,0.2291705 0.9532,0.4062605 0.2942,0.17708 0.5638,0.38541 0.8086,0.625 0.2448,0.23958 0.4544,0.50911 0.6289,0.80859 0.1744,0.2994304 0.3086,0.6185304 0.4023,0.9570304 0.0938,0.3385 0.1419,0.6927 0.1445,1.0625 0,0.3672 -0.0468,0.7214 -0.1406,1.0625 -0.0937,0.3411 -0.2291,0.6589 -0.4062,0.9531 -0.1771,0.294299 -0.3854,0.563799 -0.625,0.808599 -0.2396,0.2448 -0.5091,0.4544 -0.8086,0.6289 -0.2995,0.1745 -0.6185,0.3086 -0.9571,0.4024 -0.3385,0.0937 -0.6927,0.1419 -1.0625,0.1445 -0.3671,0 -0.7213,-0.0469 -1.0625,-0.140599 -0.3411,-0.0938 -0.6588,-0.229201 -0.9530802,-0.406301 -0.29427,-0.1771 -0.5638,-0.3854 -0.80859,-0.625 -0.2448,-0.2396 -0.4544297,-0.5091 -0.6289097,-0.808599 -0.17448,-0.2994 -0.30859,-0.6185 -0.40234,-0.957 -0.09375,-0.3385 -0.14193,-0.6927 -0.14454,-1.0625 0,-0.3672 0.04688,-0.7214 0.14063,-1.0625 0.09375,-0.3411 0.22917,-0.6589 0.40625,-0.9531204 0.17708,-0.29428 0.3854197,-0.56381 0.6249997,-0.8086 0.23958,-0.24479 0.50911,-0.45443 0.80859,-0.6289 0.2994902,-0.17448 0.6184902,-0.3086005 0.9569902,-0.4023505 0.3386,-0.09375 0.6928,-0.14193 1.0625,-0.14453 z m 2,3.9883009 -3,-1.9883004 v 4.0000004 z"
       fill="#C5C5C5"
       id="path4" />
  </g>
  <defs
     id="defs125">
    <clipPath
       id="clip0">
      <rect
         width="16"
         height="16"
         fill="white"
         transform="translate(0.000488281)"
         id="rect122" />
    </clipPath>
  </defs>
</svg>
